<svg xmlns="http://www.w3.org/2000/svg" width="19" height="12" viewBox="0 0 19 12"><g><g><g><path d="M2.6 9.776V6.533h2.835c1.145 0 1.869.475 1.869 1.681 0 1.19-.865 1.562-1.923 1.562zm0-7.766h2.441c.939 0 1.783.262 1.783 1.345 0 1-.657 1.403-1.586 1.403H2.6zm7.306 6.347c0-1.478-.705-2.571-2.16-2.98 1.062-.506 1.616-1.27 1.616-2.46C9.362.572 7.605 0 5.579 0h-5.58v11.776h5.736c2.15 0 4.17-1.026 4.17-3.42z"/></g><g><path d="M14.76 4.768c1.182 0 1.776.692 1.876 1.824h-3.83c.078-1.123.826-1.824 1.954-1.824zM14.834 12c2.046 0 3.371-.92 4.009-2.873h-2.077c-.223.73-1.145 1.115-1.86 1.115-1.379 0-2.103-.806-2.103-2.174h6.18c.196-2.739-1.33-5.073-4.15-5.073-2.612 0-4.384 1.957-4.384 4.52 0 2.66 1.68 4.485 4.384 4.485z"/></g><g><path d="M12.326.619h4.798V1.78h-4.798z"/></g></g></g></svg>