<svg xmlns="http://www.w3.org/2000/svg" width="19" height="19" viewBox="0 0 19 19"><g><g><g><path d="M9.504 12.624a3.127 3.127 0 1 1 0-6.256 3.127 3.127 0 1 1 0 6.256zm0-7.947a4.819 4.819 0 1 0 0 9.638 4.819 4.819 0 1 0 0-9.638z"/></g><g><path d="M16.184 16.187c-1.197 1.198-2.86 1.091-6.703 1.091-3.959 0-5.546.059-6.704-1.102-1.334-1.328-1.093-3.46-1.093-6.692 0-4.374-.449-7.524 3.941-7.75 1.009-.035 1.306-.047 3.844-.047l.036.024c4.219 0 7.529-.442 7.728 3.947.045 1.002.055 1.303.055 3.837 0 3.913.074 5.51-1.104 6.692zM13.418.06C11.67-.022 7.34-.018 5.59.06 4.053.132 2.697.503 1.603 1.596-.224 3.423.01 5.886.01 9.496c0 3.696-.206 6.1 1.593 7.9 1.835 1.834 4.332 1.594 7.9 1.594 3.661 0 4.925.002 6.22-.499 1.759-.683 3.087-2.256 3.217-5.082.083-1.748.078-6.077 0-7.827C18.783 2.247 16.993.224 13.418.06z"/></g><g><path d="M13.41 4.437a1.153 1.153 0 1 1 2.306 0 1.153 1.153 0 0 1-2.306 0z"/></g></g></g></svg>