<svg xmlns="http://www.w3.org/2000/svg" width="47" height="98" viewBox="0 0 47 98"><g><g><g><g><path d="M42.55 22.464c-.385 0-3.457-5.568-3.457-6.672S40.917 9.6 42.837 9.12c.672-.192.672 3.6 1.92 6.096.144 2.976-1.824 7.248-2.208 7.248zm-38.112 0c-.384 0-2.352-4.272-2.208-7.2 1.2-2.544 1.2-6.288 1.92-6.096 1.92.48 3.744 5.52 3.744 6.672 0 1.104-3.024 6.624-3.456 6.624zM46.485 14.4c-3.1-10.493-1.034-12.55-.255-12.717-.476.096-.998.239-1.52.429-.72-.48.767-1.728 1.391-2.112-.48.24-1.968.96-2.688 1.296-.288.144-.816 1.008-1.44 2.208-3.936 2.64-7.968 7.008-9.792 9.12 0 0-3.6-.864-8.687-.864-5.088 0-8.688.864-8.688.864-1.776-2.016-5.568-6.048-9.36-8.64-.624-1.296-1.2-2.256-1.488-2.4C3.19 1.2 1.702.48 1.222.24c.624.336 2.16 1.632 1.44 2.112-.72-.288-1.392-.528-2.016-.672.768.192 2.928 2.352-.144 12.72-2.112 7.248 3.12 12.048 3.12 12.048v7.535c0 4.752 15.504 21.408 15.504 21.408s.672.768 4.656.768c3.983 0 4.847-.768 4.847-.768s15.264-16.608 15.264-21.36V25.92c1.248-1.44 4.32-5.712 2.592-11.52zM46.23 1.683l.015-.003a.556.556 0 0 0-.015.003z"/></g><g><path d="M16.294 52.031c-.096.192-.48-.432-.624-.288-.096.096-.144.144-.144.192-.192.576-.624 1.152-.624 2.112-1.44-.624-1.44-2.688-2.16-2.304-.24.144-1.488-3.984-2.688-2.736-.096.096-.192.048-.24-.048-.864-3.696-5.808-13.584-5.808-13.584s4.272 6.192 6.864 9.792c2.064 2.64 3.984 5.04 4.464 5.616.096.096.144.192.192.288.048-.048.144-.048.192-.048.384 0 .768.576.576 1.008z"/></g><g><path d="M43.653 35.28s-4.944 9.887-5.808 13.535c-.048.096-.144.144-.24.048-1.2-1.248-2.448 2.832-2.688 2.736-.72-.336-.768 1.68-2.16 2.304 0-.96-.528-1.584-.672-2.208 0 0 0-.048-.048-.048-.144-.144-.528.528-.624.288-.192-.432.192-.96.576-.96h.096c.048-.096.096-.24.192-.336.432-.576 2.352-2.976 4.464-5.568 2.592-3.6 6.912-9.792 6.912-9.792z"/></g><g><path d="M6.07 30.383c0 3.504-.624 6.336-1.392 6.336-.768 0-1.392-2.832-1.392-6.336C3.286 26.88 3.91 24 4.678 24c.768 0 1.392 2.88 1.392 6.383z"/></g><g><path d="M44.23 30.383c0 3.504-.625 6.336-1.393 6.336s-1.392-2.832-1.392-6.336c0-3.503.624-6.383 1.392-6.383.768.048 1.392 2.88 1.392 6.383z"/></g></g><g><g><path d="M1.083 67.34h4.214v19.298h2.488v2.981H1.083z"/></g><g><path d="M9.206 67.34h4.214v22.28H9.206z"/></g><g><path d="M15.552 67.34h3.858l2.64 11.637h.254l-.457-11.636h4.213v22.278h-3.706l-2.893-12.381h-.152l.456 12.381h-4.162V67.341z"/></g><g><path d="M36.924 89.288c-.558.331-1.218.497-1.98.497-2.132 0-3.858-.994-5.178-3.023-1.269-2.03-1.929-4.845-1.929-8.448 0-4.058.965-7.08 2.843-9.151 1.219-1.325 2.64-1.988 4.163-1.988.71 0 1.421.124 2.081.414v2.816c-.456-.166-.863-.249-1.269-.249-.761 0-1.472.332-1.98 1.036-.964 1.2-1.421 3.437-1.421 6.75 0 3.478.304 5.797.964 6.915.66 1.16 1.473 1.698 2.539 1.698.406 0 .812-.083 1.218-.29v3.023z"/></g><g><path d="M38.447 67.34h7.21v2.94H42.66v7.04h2.995v2.9h-2.995v6.459h2.995v2.94h-7.209z"/></g><g><path d="M2.454 92.89c.152.083.254.166.305.166.152.124.254.331.304.539.051.29.102.662.102 1.118 0 .538-.05.91-.102 1.16-.05.248-.152.455-.304.579-.051.083-.153.124-.305.207zm-1.37 4.721h.66c.507 0 .913-.041 1.269-.165.253-.083.507-.207.71-.373.305-.249.559-.58.711-.952.152-.373.254-.829.254-1.326 0-.497-.102-.91-.254-1.283-.152-.332-.406-.621-.66-.87-.254-.207-.61-.373-.965-.497s-.812-.165-1.32-.165h-.406z"/></g><g><path d="M5.195 91.98h1.371v5.631h-1.37z"/></g><g><path d="M10.78 97.611c-.203.042-.457.042-.812.042-.457 0-.813-.042-1.067-.083a2.249 2.249 0 0 1-.913-.456c-.254-.207-.457-.538-.66-.91a3.532 3.532 0 0 1-.254-1.326c0-.91.254-1.615.71-2.153.457-.538 1.067-.787 1.828-.787.152 0 .356 0 .508.042.152.04.355.082.66.165v.87c-.305-.207-.61-.332-.965-.332-.406 0-.71.166-.964.497-.254.332-.356.87-.356 1.533 0 .414.051.786.102 1.118.101.33.203.58.304.704.102.124.254.207.457.33v-1.324H8.8v-.746h1.878v2.816z"/></g><g><path d="M11.338 91.98h1.37v5.631h-1.37z"/></g><g><path d="M13.166 91.98h3.3v.745H15.5v4.928h-1.37v-4.928h-.965z"/></g><g><path d="M18.242 94.713l.102 1.16h-.61l.153-1.492c.05-.248.05-.745.102-1.532h.101zm-2.081 2.898h1.37l.153-1.035h.761l.051 1.035h1.37l-1.065-5.673h-1.523z"/></g><g><path d="M20.375 91.98h1.37v4.886h.813v.745h-2.183z"/></g><g><path d="M24.944 96.783c.203.041.406.083.609.083.254 0 .457-.042.609-.124.152-.083.203-.207.203-.373 0-.124-.05-.248-.101-.373-.102-.248-.305-.58-.559-.952-.305-.414-.508-.746-.61-1.077a2.077 2.077 0 0 1-.1-.62c0-.498.152-.83.507-1.078.355-.207.762-.33 1.32-.33.254 0 .558.04.863.082v.745c-.203-.041-.355-.082-.508-.082-.254 0-.457.04-.609.165-.152.124-.254.249-.254.456 0 .124.051.248.102.414.101.248.254.538.507.91.305.456.559.87.66 1.202.051.165.102.372.102.58 0 .413-.203.703-.558.952a2.632 2.632 0 0 1-1.32.331c-.254 0-.508-.041-.863-.083z"/></g><g><path d="M27.99 91.98h3.3v.745h-.965v4.928h-1.37v-4.928h-.965z"/></g><g><path d="M31.848 91.98h1.37v4.1c0 .33.102.579.356.703a.77.77 0 0 0 .304-.621V91.98h1.371v4.1c0 .496-.203.91-.61 1.241-.304.249-.659.332-1.065.332-.254 0-.559-.042-.812-.166a1.628 1.628 0 0 1-.61-.497c-.203-.29-.304-.621-.304-.87z"/></g><g><path d="M37.33 92.89c.153.083.254.166.305.166.152.124.254.331.305.539.05.29.101.662.101 1.118 0 .538-.05.91-.101 1.16-.051.248-.153.455-.305.579-.05.083-.152.124-.304.207zm-1.37 4.721h.66c.508 0 .914-.041 1.269-.165.254-.083.508-.207.71-.373.305-.249.56-.58.711-.952.153-.373.254-.829.254-1.326 0-.497-.101-.91-.254-1.283-.152-.332-.406-.621-.66-.87-.253-.207-.609-.373-.964-.497s-.812-.165-1.32-.165h-.406z"/></g><g><path d="M40.072 91.98h1.37v5.631h-1.37z"/></g><g><path d="M44.133 93.18c.102.249.153.704.153 1.284 0 .29 0 .704-.051 1.284 0 .331-.051.538-.102.662-.05.125-.152.249-.254.373a.951.951 0 0 1-.304-.455c-.102-.249-.152-.746-.152-1.367 0-.29 0-.663.05-1.16 0-.33.051-.538.102-.662a.899.899 0 0 1 .254-.331c.152.083.203.248.304.372zm-1.624 3.81c.304.456.761.663 1.32.663.406 0 .761-.125 1.066-.414.507-.497.761-1.284.761-2.444 0-.455-.05-.87-.152-1.283-.102-.414-.203-.704-.406-.953-.203-.248-.406-.414-.61-.497a1.862 1.862 0 0 0-.66-.124c-.507 0-.913.207-1.218.58-.406.497-.609 1.284-.609 2.36 0 .87.152 1.574.508 2.112z"/></g></g></g></g></svg>